<svg xmlns="http://www.w3.org/2000/svg" viewBox="0 0 425.23 132.71"><defs><style>.cls-1{isolation:isolate;}.cls-2{opacity:0.92;mix-blend-mode:darken;}.cls-3{fill:#ffe600;}.cls-4{fill:#4378bc;}.cls-5{fill:#ed2024;}.cls-6{fill:none;}.cls-7{fill:#ee1c4e;}</style></defs><g class="cls-1"><g id="Layer_2" data-name="Layer 2"><g id="Layer_1-2" data-name="Layer 1"><g class="cls-2"><path class="cls-3" d="M30.82,71.08H61.63a0,0,0,0,1,0,0V101.9a30.81,30.81,0,0,1-30.81,30.81h0A30.81,30.81,0,0,1,0,101.9v0A30.81,30.81,0,0,1,30.82,71.08Z"/><path class="cls-4" d="M52.6,9a30.81,30.81,0,1,0-21.78,52.6H61.63V30.81A30.69,30.69,0,0,0,52.6,9ZM43.25,36H35.39v7.86H25V36H17.09V25.51H25V17.64H35.39v7.87h7.86Z"/><path class="cls-5" d="M102.56.46h0a30.81,30.81,0,0,1,30.81,30.81v0a30.81,30.81,0,0,1-30.81,30.81H71.74a0,0,0,0,1,0,0V31.27A30.81,30.81,0,0,1,102.56.46Z"/></g><polygon class="cls-6" points="43.25 25.51 43.25 35.95 35.39 35.95 35.39 43.81 24.95 43.81 24.95 35.95 17.09 35.95 17.09 25.51 24.95 25.51 24.95 17.64 35.39 17.64 35.39 25.51 43.25 25.51"/><path class="cls-7" d="M197.52,62.93V27.87L183,54.42h-4.25L164.24,27.87V62.93h-7.69V14.21h8.24L180.92,44,197,14.21h8.24V62.93Z"/><path class="cls-7" d="M231.56,63.62a19.18,19.18,0,0,1-7.62-1.47,17.77,17.77,0,0,1-9.64-9.92A19.16,19.16,0,0,1,213,45.09a19.43,19.43,0,0,1,1.34-7.17,18.17,18.17,0,0,1,3.78-6,17.37,17.37,0,0,1,5.86-4.05,19.35,19.35,0,0,1,7.69-1.48,18.55,18.55,0,0,1,7.58,1.51,18.13,18.13,0,0,1,5.8,4,17.07,17.07,0,0,1,3.67,5.83,19.31,19.31,0,0,1,1.27,7c0,.55,0,1.06-.06,1.54s-.1.88-.14,1.2H221a12.28,12.28,0,0,0,1.14,4.33,11.17,11.17,0,0,0,2.4,3.33,10.51,10.51,0,0,0,7.31,2.91,11.6,11.6,0,0,0,3-.38,10.46,10.46,0,0,0,2.71-1.09,9.64,9.64,0,0,0,2.2-1.75,8.25,8.25,0,0,0,1.51-2.27l6.45,1.85a15,15,0,0,1-6.14,6.63A19.1,19.1,0,0,1,231.56,63.62Zm10.91-21.34a11.88,11.88,0,0,0-1.13-4.19A10.83,10.83,0,0,0,239,34.83a10.53,10.53,0,0,0-3.36-2.09,11,11,0,0,0-4.05-.76,10.8,10.8,0,0,0-7.34,2.85,10.24,10.24,0,0,0-2.33,3.26,12.52,12.52,0,0,0-1.1,4.19Z"/><path class="cls-7" d="M270.88,63.62a15.79,15.79,0,0,1-6.82-1.47,16.77,16.77,0,0,1-5.39-4,18.74,18.74,0,0,1-3.54-5.9A20.36,20.36,0,0,1,253.86,45a21.37,21.37,0,0,1,1.21-7.24,18.56,18.56,0,0,1,3.32-5.9,15.84,15.84,0,0,1,5.12-4A14.47,14.47,0,0,1,270,26.42a13.83,13.83,0,0,1,7.48,2.06,14.85,14.85,0,0,1,5.15,5.36v-21h7.55V54a2.14,2.14,0,0,0,2.19,2.47v6.45c-.77.14-1.46.23-2.05.28s-1.15.07-1.65.07q-4.26-.42-4.81-3.91l-.13-3a14.12,14.12,0,0,1-5.49,5.36A15.3,15.3,0,0,1,270.88,63.62Zm1.93-6.45a9.13,9.13,0,0,0,3-.55,11.93,11.93,0,0,0,2.95-1.51,11.44,11.44,0,0,0,2.4-2.26A8,8,0,0,0,282.62,50v-9.4a11.09,11.09,0,0,0-1.72-3.05,13.29,13.29,0,0,0-2.5-2.47,11.56,11.56,0,0,0-3-1.65,9,9,0,0,0-3.15-.58,9.25,9.25,0,0,0-4.36,1,10.78,10.78,0,0,0-3.36,2.75,12.51,12.51,0,0,0-2.17,4,14.2,14.2,0,0,0-.75,4.56,12.58,12.58,0,0,0,.86,4.67,12.23,12.23,0,0,0,2.33,3.81,11.12,11.12,0,0,0,3.53,2.57A10.46,10.46,0,0,0,272.81,57.17Z"/><path class="cls-3" d="M329.9,25.67a10.33,10.33,0,0,0-2-1.61,20.51,20.51,0,0,0-3.05-1.62A22.37,22.37,0,0,0,321,21.21a20.57,20.57,0,0,0-4.53-.48q-4.53,0-6.86,1.78a5.93,5.93,0,0,0-2.33,5,5.21,5.21,0,0,0,.75,2.92,6.25,6.25,0,0,0,2.27,2,18.9,18.9,0,0,0,3.77,1.47c1.51.44,3.27.9,5.29,1.41,2.37.64,4.56,1.3,6.55,2A18.74,18.74,0,0,1,331,39.84a11,11,0,0,1,3.26,3.81,12.2,12.2,0,0,1,1.16,5.63A13.63,13.63,0,0,1,334,55.8a12.3,12.3,0,0,1-3.87,4.35,17,17,0,0,1-5.67,2.48,29.07,29.07,0,0,1-6.86.78,34.85,34.85,0,0,1-10.77-1.68,30.68,30.68,0,0,1-9.41-4.9l3.57-6.59a17.33,17.33,0,0,0,2.54,2,22.26,22.26,0,0,0,3.88,2,32.53,32.53,0,0,0,4.91,1.58,23.07,23.07,0,0,0,5.56.65,12.24,12.24,0,0,0,6.82-1.61,5.27,5.27,0,0,0,2.44-4.7,5.16,5.16,0,0,0-.89-3.09,7.74,7.74,0,0,0-2.61-2.16,21.27,21.27,0,0,0-4.19-1.65c-1.64-.48-3.52-1-5.62-1.54a57.8,57.8,0,0,1-6.35-2,15.58,15.58,0,0,1-4.5-2.57,10.14,10.14,0,0,1-2.71-3.53,11.73,11.73,0,0,1-.92-4.91,14.48,14.48,0,0,1,1.33-6.35,13.35,13.35,0,0,1,3.71-4.67,16.48,16.48,0,0,1,5.59-2.84,24.18,24.18,0,0,1,6.93-1,25.8,25.8,0,0,1,9.23,1.57,30.4,30.4,0,0,1,7.31,3.92Z"/><path class="cls-3" d="M361.27,61.08c-1,.46-2.35,1-4,1.55a16.79,16.79,0,0,1-5.45.85,11.17,11.17,0,0,1-3.33-.48,8.3,8.3,0,0,1-2.75-1.44,6.44,6.44,0,0,1-1.88-2.5,9.15,9.15,0,0,1-.69-3.74V32.88h-4.8V27h4.8V15.24h7.55V27h7.82v5.84H350.7v20a3.28,3.28,0,0,0,1.1,2.78,4.15,4.15,0,0,0,2.67.86,8.3,8.3,0,0,0,3-.55c1-.36,1.67-.66,2.13-.89Z"/><path class="cls-3" d="M375.82,63.62a13.38,13.38,0,0,1-4.84-.86,11.66,11.66,0,0,1-3.84-2.36,11.1,11.1,0,0,1-2.55-3.57,10.89,10.89,0,0,1-.92-4.46,9.51,9.51,0,0,1,1.1-4.6,10.77,10.77,0,0,1,3.12-3.57,14.9,14.9,0,0,1,4.8-2.33,21.58,21.58,0,0,1,6.15-.83,27.76,27.76,0,0,1,5,.45,25.87,25.87,0,0,1,4.47,1.2V40.22A8.33,8.33,0,0,0,386,34q-2.27-2.23-6.52-2.23a15.68,15.68,0,0,0-5.66,1.06,28.72,28.72,0,0,0-5.73,3.06l-2.33-4.81a25.45,25.45,0,0,1,14.41-4.67q7.41,0,11.53,3.78T395.85,41V54a2.78,2.78,0,0,0,.49,1.86,2.25,2.25,0,0,0,1.64.61v6.45a18.7,18.7,0,0,1-2,.28c-.62,0-1.18.07-1.68.07A5.26,5.26,0,0,1,391,62.11a4.52,4.52,0,0,1-1.41-2.74l-.2-2.27a16,16,0,0,1-5.94,4.84A17.47,17.47,0,0,1,375.82,63.62Zm2.05-5.56a13.7,13.7,0,0,0,5.19-1,9,9,0,0,0,3.8-2.78,3.49,3.49,0,0,0,1.45-2.61V46.94a23,23,0,0,0-4.09-1.16,22.08,22.08,0,0,0-4.22-.41,11.49,11.49,0,0,0-6.62,1.75,5.34,5.34,0,0,0-2.57,4.63,5.83,5.83,0,0,0,2,4.49A7.19,7.19,0,0,0,377.87,58.06Z"/><path class="cls-3" d="M425.23,33.56a16.64,16.64,0,0,0-7.76,2A11.07,11.07,0,0,0,412.6,41v22h-7.55V27h7v8A18.15,18.15,0,0,1,417,29a10.15,10.15,0,0,1,6.34-2.33h1.14a3.81,3.81,0,0,1,.79.07Z"/><path class="cls-4" d="M196.56,66.39v48.72h-7.75V93.63H164.24v21.48h-7.69V66.39h7.69V86.77h24.57V66.39Z"/><path class="cls-4" d="M239.87,90.1a17.78,17.78,0,0,0-3.74-5.94,18.76,18.76,0,0,0-26.84,0,17.78,17.78,0,0,0-3.74,5.94,20.07,20.07,0,0,0,0,14.21,17.88,17.88,0,0,0,3.71,5.93,17.6,17.6,0,0,0,5.8,4.05,20,20,0,0,0,15.23,0,18.09,18.09,0,0,0,5.84-4.05,17.63,17.63,0,0,0,3.74-5.93,20.07,20.07,0,0,0,0-14.21Zm-9.27,18L222.77,103l-7.83,5.12,2.45-9-7.28-5.86,9.34-.46L222.77,84l3.33,8.74,9.34.46-7.29,5.86Z"/><path class="cls-4" d="M261,115.8a28.8,28.8,0,0,1-4.42-.34,31.81,31.81,0,0,1-4.4-1,28.44,28.44,0,0,1-4.11-1.58,18.25,18.25,0,0,1-3.47-2.09l3.16-5.08q6.59,4.61,13.11,4.6a9.81,9.81,0,0,0,5.42-1.3,4.2,4.2,0,0,0,2-3.71,3.51,3.51,0,0,0-2.23-3.33,39.16,39.16,0,0,0-7.11-2.23q-3.36-.83-5.76-1.68a16.18,16.18,0,0,1-3.91-1.92,6.46,6.46,0,0,1-2.2-2.54,8.27,8.27,0,0,1-.68-3.53,10.53,10.53,0,0,1,1.09-4.88,11,11,0,0,1,3-3.6,13.16,13.16,0,0,1,4.46-2.23,19.69,19.69,0,0,1,5.52-.75A23.38,23.38,0,0,1,268,79.84a23.79,23.79,0,0,1,6.52,3.36l-3.22,4.6a18,18,0,0,0-11-3.84,9.32,9.32,0,0,0-4.88,1.2,4.13,4.13,0,0,0-2,3.81,3.75,3.75,0,0,0,.42,1.85,3.47,3.47,0,0,0,1.33,1.3,10.84,10.84,0,0,0,2.44,1c1,.3,2.24.63,3.71,1,2.47.6,4.59,1.2,6.38,1.79A17.76,17.76,0,0,1,272.16,98a7.7,7.7,0,0,1,2.57,2.82,8.38,8.38,0,0,1,.82,3.87,9.88,9.88,0,0,1-3.94,8.1A13.89,13.89,0,0,1,267,115,21.33,21.33,0,0,1,261,115.8Z"/><path class="cls-4" d="M302.25,115.8a13.91,13.91,0,0,1-7.58-2.06,15.89,15.89,0,0,1-5.25-5.35v21.34h-7.55V79.22h6.65v6.45a15.6,15.6,0,0,1,5.36-5.14,14.41,14.41,0,0,1,7.41-1.92,15.18,15.18,0,0,1,6.72,1.5,17.37,17.37,0,0,1,5.36,4,18.77,18.77,0,0,1,3.53,5.91,19.71,19.71,0,0,1,1.27,7.06,22.27,22.27,0,0,1-1.17,7.31,18.07,18.07,0,0,1-3.29,5.91,16.22,16.22,0,0,1-5,4A14.09,14.09,0,0,1,302.25,115.8Zm-2.4-6.45a9.24,9.24,0,0,0,4.32-1,10.32,10.32,0,0,0,3.36-2.74,13.32,13.32,0,0,0,2.16-3.92,13.17,13.17,0,0,0,.79-4.53,12.72,12.72,0,0,0-.85-4.66,12.45,12.45,0,0,0-2.37-3.85,11.4,11.4,0,0,0-3.57-2.6,10.27,10.27,0,0,0-4.39-1,9.08,9.08,0,0,0-3,.55,12.32,12.32,0,0,0-3,1.5,11.32,11.32,0,0,0-2.43,2.24,7.36,7.36,0,0,0-1.44,2.77v9.41a13.78,13.78,0,0,0,1.78,3.08,12.35,12.35,0,0,0,2.47,2.48,12.55,12.55,0,0,0,2.95,1.64A8.83,8.83,0,0,0,299.85,109.35Z"/><path class="cls-4" d="M324.83,73.32V65h7.55v8.3Zm0,41.79V79.22h7.55v35.89Z"/><path class="cls-4" d="M361.34,113.26c-1,.46-2.35,1-4,1.55a16.8,16.8,0,0,1-5.46.85,11.1,11.1,0,0,1-3.32-.48,8.3,8.3,0,0,1-2.75-1.44,6.56,6.56,0,0,1-1.89-2.5,9.32,9.32,0,0,1-.68-3.74V85.06h-4.81V79.22h4.81V67.42h7.55v11.8h7.82v5.84h-7.82v20a3.29,3.29,0,0,0,1.09,2.77,4.2,4.2,0,0,0,2.68.86,8.33,8.33,0,0,0,3-.55c1-.36,1.67-.66,2.13-.89Z"/><path class="cls-4" d="M375.88,115.8a13.33,13.33,0,0,1-4.83-.86,11.81,11.81,0,0,1-3.85-2.36,11.23,11.23,0,0,1-2.54-3.57,10.89,10.89,0,0,1-.92-4.46,9.51,9.51,0,0,1,1.1-4.6A10.77,10.77,0,0,1,368,96.38a15.11,15.11,0,0,1,4.8-2.33,21.51,21.51,0,0,1,6.14-.83,27.79,27.79,0,0,1,5,.45,25.5,25.5,0,0,1,4.46,1.2V92.4a8.33,8.33,0,0,0-2.26-6.21Q383.85,84,379.59,84A15.68,15.68,0,0,0,373.93,85a28.45,28.45,0,0,0-5.73,3.06l-2.34-4.81a25.49,25.49,0,0,1,14.42-4.66q7.41,0,11.53,3.77t4.11,10.84v13a2.84,2.84,0,0,0,.48,1.86,2.29,2.29,0,0,0,1.65.61v6.45a19,19,0,0,1-2,.28c-.62,0-1.18.07-1.69.07a5.25,5.25,0,0,1-3.32-1.17,4.49,4.49,0,0,1-1.41-2.74l-.21-2.27a16,16,0,0,1-5.93,4.84A17.48,17.48,0,0,1,375.88,115.8Zm2.06-5.56a13.61,13.61,0,0,0,5.18-1,8.92,8.92,0,0,0,3.81-2.78,3.49,3.49,0,0,0,1.44-2.61V99.12A22.68,22.68,0,0,0,384.29,98a22.08,22.08,0,0,0-4.22-.41,11.49,11.49,0,0,0-6.62,1.75,5.35,5.35,0,0,0-2.58,4.63,5.86,5.86,0,0,0,2,4.49A7.21,7.21,0,0,0,377.94,110.24Z"/><path class="cls-4" d="M405.19,65h7.55v39.53a4.47,4.47,0,0,0,1,3.12,3.69,3.69,0,0,0,2.88,1.13,8,8,0,0,0,1.78-.24,10.07,10.07,0,0,0,1.92-.65l1.1,6.11a17.89,17.89,0,0,1-3.91,1.2,21.76,21.76,0,0,1-4.05.44,8.41,8.41,0,0,1-6.11-2.12,8,8,0,0,1-2.19-6Z"/><polygon class="cls-6" points="228.15 99.08 230.6 108.11 222.77 102.99 214.94 108.11 217.39 99.08 210.11 93.22 219.45 92.76 222.77 84.02 226.1 92.76 235.44 93.22 228.15 99.08"/></g></g></g></svg>